<svg version="1.1" id="Layer_1" xmlns="http://www.w3.org/2000/svg" xmlns:xlink="http://www.w3.org/1999/xlink" x="0px" y="0px"
	 width="100%" viewBox="0 0 500 500" enable-background="new 0 0 500 500" xml:space="preserve">
<path fill="#900590" opacity="1.000000" stroke="none" 
	d="
M280.000000,501.000000 
	C186.666687,501.000000 93.833374,501.000000 1.000050,501.000000 
	C1.000033,334.333405 1.000033,167.666794 1.000017,1.000139 
	C167.666565,1.000093 334.333130,1.000093 500.999756,1.000046 
	C500.999847,167.666519 500.999847,334.333038 500.999939,500.999786 
	C427.500000,501.000000 354.000000,501.000000 280.000000,501.000000 
M116.163246,312.352753 
	C117.242676,314.022766 118.160362,315.828644 119.429321,317.339478 
	C125.165268,324.168732 128.874054,331.611267 127.836205,340.908325 
	C127.451889,344.350983 127.914871,347.880402 127.812851,351.365021 
	C127.740700,353.829468 128.626816,355.556580 131.157028,354.864166 
	C132.597305,354.470032 134.317368,352.933563 134.751923,351.547852 
	C135.368988,349.580261 135.143265,347.250549 134.886337,345.122803 
	C133.372040,332.582245 135.559357,321.401398 145.827118,312.793884 
	C146.612366,312.135590 146.581085,308.882660 145.893112,308.437622 
	C144.609085,307.607025 141.674713,307.172333 140.991119,307.949219 
	C138.308594,310.997681 136.253235,314.594757 133.925049,317.960510 
	C133.275238,318.899872 132.545456,320.391266 131.749283,320.461517 
	C130.844513,320.541382 129.578308,319.501587 128.897049,318.618469 
	C126.090782,314.980682 123.446869,311.217621 120.524803,307.200287 
	C118.733124,308.662140 117.388100,309.759552 115.191750,310.736450 
	C113.694458,309.310852 112.232430,306.698792 110.694145,306.653076 
	C101.044495,306.366333 91.372147,306.514252 81.723816,306.915375 
	C80.473495,306.967346 79.318146,309.303741 78.118813,310.582001 
	C79.295769,311.613770 80.329147,313.185577 81.684593,313.545898 
	C83.544449,314.040375 85.669350,313.788147 87.643387,313.548615 
	C91.329018,313.101471 92.692528,314.521576 92.626068,318.263885 
	C92.439651,328.759674 92.540009,339.260406 92.500519,349.759094 
	C92.491501,352.156891 92.280403,354.872650 95.642975,354.854736 
	C98.827408,354.837799 99.669601,352.410492 99.688538,349.629517 
	C99.756508,339.647766 99.825851,329.665985 99.890182,319.684235 
	C99.901688,317.900085 99.891815,316.115784 99.891815,314.858063 
	C105.746574,313.689758 110.913559,312.658691 116.163246,312.352753 
M271.335815,160.164276 
	C261.537567,150.423630 251.739304,140.682968 242.119904,131.120132 
	C246.476059,126.663551 250.511734,122.534843 255.113678,117.826805 
	C279.348969,142.042282 303.686035,166.359451 327.414093,190.068130 
	C330.801910,187.108139 334.110535,184.217316 337.203949,181.514526 
	C309.293823,153.641846 281.739563,126.124565 253.373535,97.796585 
	C246.395615,105.113663 239.181778,112.678123 232.430542,119.757500 
	C228.212173,115.762283 224.386963,112.139404 221.345734,109.259056 
	C233.582062,96.821213 245.804565,84.397415 258.528076,71.464371 
	C275.544983,88.632980 292.743073,105.984383 309.954865,123.349625 
	C313.605865,119.826721 316.796204,116.748299 319.377716,114.257362 
	C298.391296,93.383629 277.662140,72.765816 257.888916,53.098778 
	C239.276566,71.729263 220.156799,90.867676 200.392227,110.651497 
	C224.121094,134.246628 248.421570,158.410156 272.102203,181.957321 
	C268.156555,186.297714 264.286591,190.554855 259.950256,195.324997 
	C235.508163,170.826370 211.298523,146.560730 187.133118,122.339424 
	C183.833344,125.458717 180.637924,128.479355 177.963104,131.007858 
	C205.868591,158.917801 233.480530,186.534164 262.194519,215.252762 
	C269.043152,208.183121 276.290619,200.701782 282.892853,193.886475 
	C286.742249,197.245102 290.607483,200.617554 293.400909,203.054855 
	C280.835846,215.755051 268.511261,228.212143 255.703064,241.158081 
	C239.029861,224.399948 221.895126,207.177902 204.506195,189.700378 
	C201.225891,193.021057 198.105515,196.179840 195.529617,198.787460 
	C216.409927,219.597656 237.124374,240.242538 256.955048,260.006653 
	C275.593750,241.318085 294.701019,222.159683 314.107147,202.701630 
	C300.417755,189.088104 286.126740,174.876251 271.335815,160.164276 
M437.216095,333.399048 
	C440.354309,339.235077 443.294495,345.193146 446.765625,350.823944 
	C447.668030,352.287842 450.176880,353.235931 452.049377,353.427216 
	C452.985748,353.522858 454.827881,351.524506 455.105499,350.226257 
	C457.374176,339.618408 456.928009,329.020782 454.596466,318.111938 
	C446.333069,323.429840 452.299988,332.084717 448.625000,339.542084 
	C446.802551,336.095520 445.514648,333.378815 443.979492,330.809845 
	C439.561951,323.417267 435.227020,315.961304 430.415436,308.829895 
	C429.428955,307.367828 426.510986,307.208893 424.483337,306.449280 
	C423.879822,308.155609 422.891724,309.832611 422.758820,311.574860 
	C422.533142,314.532745 422.929260,317.532013 422.918304,320.513367 
	C422.880341,330.827728 422.658936,341.144226 422.865997,351.452759 
	C422.889984,352.647858 425.158051,353.797852 426.385712,354.968781 
	C427.439514,353.662811 429.331573,352.404907 429.409698,351.042969 
	C429.881744,342.813080 429.919037,334.558807 430.157501,326.314301 
	C430.191162,325.151642 430.529968,323.997803 430.727509,322.839844 
	C431.071991,322.785217 431.416473,322.730560 431.760956,322.675934 
	C433.495911,326.012024 435.230865,329.348114 437.216095,333.399048 
M377.467590,342.959015 
	C378.420349,344.319366 379.382141,345.673462 380.324463,347.041016 
	C387.054474,356.808075 404.771515,359.327545 411.720978,344.455475 
	C412.979126,341.763062 413.860626,338.896729 414.974091,336.134094 
	C416.438141,332.501678 415.236816,330.168701 411.643799,328.704926 
	C410.772614,331.461823 410.510254,334.352966 409.066895,336.418976 
	C406.295624,340.385834 403.438385,344.770142 399.536591,347.343201 
	C395.128479,350.250122 389.246979,347.463715 384.931213,342.067719 
	C377.372406,332.616913 378.172577,321.561371 386.871155,315.264496 
	C394.161621,309.986938 403.489349,313.110168 410.093414,322.949524 
	C410.826752,324.042145 412.009430,324.833160 413.169312,325.941376 
	C415.520020,320.711090 414.708618,315.052917 410.762512,312.353821 
	C403.777161,307.575958 396.133118,303.521881 387.519012,307.618622 
	C378.528961,311.894104 372.553192,318.850403 373.626068,329.541656 
	C374.060272,333.868378 375.926239,338.051422 377.467590,342.959015 
M190.026428,336.683777 
	C189.644623,333.667816 190.975082,332.473267 193.989853,332.601013 
	C196.474579,332.706329 198.976120,332.455566 201.468475,332.328796 
	C203.852036,332.207550 206.696106,332.942505 206.654495,328.899994 
	C206.610779,324.652466 203.626617,325.305908 201.041367,325.273193 
	C197.108170,325.223450 193.173889,325.260193 189.195114,325.260193 
	C189.470383,322.103699 190.002563,319.618500 189.827408,317.184174 
	C189.546249,313.276764 191.367813,312.165527 194.853485,312.471191 
	C198.811676,312.818237 202.787949,313.339111 206.734863,313.195129 
	C207.868591,313.153778 209.895401,310.960846 209.778000,309.957397 
	C209.629150,308.685425 207.815765,306.780823 206.535721,306.620270 
	C202.304108,306.089569 197.990112,306.151245 193.706589,306.112396 
	C184.695297,306.030670 182.897369,307.596130 182.977600,316.766571 
	C183.075989,328.013428 183.703003,339.254791 183.976654,350.501556 
	C184.061142,353.974060 185.706436,355.282532 188.982712,355.041992 
	C194.603699,354.629242 200.221512,354.140076 205.849564,353.865540 
	C211.575348,353.586212 211.904556,353.209167 210.241516,347.025665 
	C207.191940,347.025665 204.022186,346.707581 200.936783,347.082947 
	C189.994400,348.414307 190.005310,348.503998 190.026428,336.683777 
M308.106873,333.354431 
	C308.068512,334.851013 308.194702,336.373322 307.965302,337.840027 
	C306.390228,347.910217 299.971252,349.539093 294.297241,348.015625 
	C288.546204,346.471527 288.061951,341.643280 287.745605,336.954376 
	C287.138672,327.958557 286.765656,318.946899 286.259003,309.241211 
	C281.533234,311.465057 280.128784,314.470886 280.294739,318.180328 
	C280.658539,326.310822 280.948730,334.460480 281.782227,342.549469 
	C282.559753,350.095123 288.890930,354.881287 297.313995,355.008118 
	C306.055695,355.139740 311.921509,350.947083 313.006256,343.078674 
	C314.092957,335.196320 314.588013,327.231293 315.294464,319.298218 
	C315.558929,316.328156 316.024475,313.312012 315.728485,310.384613 
	C315.593109,309.045807 313.836639,307.870911 312.815369,306.621704 
	C311.663483,307.931763 309.647064,309.154724 309.504883,310.566467 
	C308.773956,317.825012 308.524567,325.132019 308.106873,333.354431 
M352.019226,347.386505 
	C355.254395,339.966583 351.771881,334.082245 346.653259,329.640930 
	C342.856659,326.346680 337.933350,322.768127 332.597931,327.286865 
	C332.037109,325.106903 332.038666,322.956696 331.014709,321.556396 
	C328.433533,318.026428 329.869751,315.316193 333.093750,314.574249 
	C337.657867,313.523865 342.523712,313.784821 347.260620,313.485321 
	C347.516327,314.033875 347.772034,314.582397 348.027710,315.130920 
	C348.586700,313.552185 349.145660,311.973450 349.704590,310.394684 
	C348.266083,309.903931 346.828583,309.410187 345.388428,308.924286 
	C344.942780,308.773956 344.453369,308.713501 344.045898,308.495911 
	C338.330750,305.444183 330.419281,306.527771 326.109711,311.105713 
	C322.784027,314.638489 321.704132,319.035492 324.552338,322.935547 
	C326.870941,326.110413 330.378082,328.564240 333.718994,330.798157 
	C336.292175,332.518707 340.244720,332.693237 342.098969,334.838623 
	C344.315094,337.402679 346.699799,341.905396 345.841644,344.533173 
	C344.676514,348.100983 340.001556,349.040558 335.952026,347.433899 
	C332.725403,346.153717 329.674469,344.389465 326.389679,343.317810 
	C325.108398,342.899811 323.400635,343.788940 321.887177,344.082733 
	C322.265350,345.785217 322.087006,348.365356 323.126678,349.024719 
	C326.174194,350.957336 329.643585,352.295776 333.061646,353.558563 
	C340.577332,356.335297 346.614288,353.728882 352.019226,347.386505 
M55.893963,353.720856 
	C57.189678,354.015900 58.481686,354.328491 59.781765,354.602844 
	C65.260406,355.759125 73.485672,350.645355 75.123207,345.355072 
	C77.263763,338.439789 73.512665,333.466095 69.074295,329.589233 
	C65.214172,326.217499 60.241322,323.021240 55.080608,327.094666 
	C54.455994,324.928253 54.362347,322.736542 53.286797,321.260162 
	C51.021366,318.150482 52.188267,315.681396 54.982052,314.951324 
	C58.780670,313.958740 62.907642,314.191254 66.898201,313.982422 
	C68.218315,313.913330 69.838448,314.592010 70.794075,314.030792 
	C71.646370,313.530334 72.459526,311.382263 72.052155,310.695221 
	C71.469063,309.711792 69.773483,309.364685 68.525650,308.806915 
	C67.697479,308.436707 66.712624,308.333160 65.984283,307.836792 
	C60.164204,303.870148 55.089661,307.421204 50.261913,309.814819 
	C46.096722,311.880005 44.986195,316.247894 46.060444,320.636810 
	C47.286972,325.647827 50.752487,328.867798 55.584526,330.707977 
	C58.679424,331.886627 62.481041,332.573181 64.518234,334.802948 
	C66.803398,337.304138 69.226227,341.858917 68.385826,344.501434 
	C67.258003,348.047791 62.577343,349.033722 58.505817,347.444031 
	C55.422253,346.240112 52.497692,344.576477 49.351173,343.609375 
	C47.873993,343.155365 46.040604,343.860260 44.368637,344.039978 
	C44.915405,345.848145 44.906860,348.461853 46.122448,349.299835 
	C48.804276,351.148621 52.103001,352.102539 55.893963,353.720856 
M254.963638,350.087402 
	C254.966278,345.802490 254.696533,341.489929 255.126984,337.248444 
	C255.267761,335.861359 257.063995,333.806427 258.393066,333.548004 
	C261.252563,332.992004 264.310974,333.253662 267.268036,333.462555 
	C270.246521,333.672943 271.416595,331.876801 271.095825,329.582275 
	C270.926605,328.371796 269.120026,326.812897 267.783081,326.473541 
	C265.581421,325.914764 263.154510,326.081909 260.834198,326.190796 
	C257.475677,326.348389 254.869141,326.063690 255.181351,321.568329 
	C255.693268,314.197357 256.588776,313.005249 261.951324,313.488739 
	C265.584747,313.816345 269.244507,314.337982 272.856476,314.134186 
	C274.008331,314.069153 275.861298,311.977875 275.897339,310.769165 
	C275.931488,309.624786 274.110809,307.538574 272.920959,307.394592 
	C267.165039,306.698059 261.348907,306.477661 255.549973,306.165070 
	C251.086533,305.924438 249.292358,308.742706 249.037582,312.593597 
	C248.511932,320.538666 248.175018,328.499023 247.920959,336.458191 
	C247.772415,341.111816 247.615173,345.810638 248.126328,350.415405 
	C248.307877,352.050934 250.453384,353.468475 251.702332,354.985535 
	C252.784210,353.654633 253.866089,352.323730 254.963638,350.087402 
M176.133377,347.868073 
	C170.530212,347.868073 164.927048,347.868073 158.876389,347.868073 
	C158.876389,341.666107 158.944382,336.253723 158.859009,330.843719 
	C158.754700,324.233765 158.656555,317.617340 158.242249,311.023438 
	C158.147827,309.520721 156.768066,308.098724 155.979904,306.639587 
	C154.606903,307.862488 152.242844,308.954010 152.059814,310.334656 
	C151.631256,313.567383 152.073212,316.960571 152.484879,320.248505 
	C153.028915,324.593964 155.924301,330.186340 154.179688,332.959778 
	C150.416992,338.941406 153.979904,344.943573 152.082230,350.647156 
	C151.760010,351.615540 154.131485,354.702393 155.348251,354.755554 
	C161.640518,355.030426 167.997147,354.981750 174.259491,354.342285 
	C177.778336,353.983002 178.757080,351.246216 176.133377,347.868073 
M366.731506,307.345917 
	C365.882935,306.934998 364.992645,306.103424 364.192780,306.182800 
	C359.710175,306.627808 359.305176,310.240631 359.267365,313.535736 
	C359.123322,326.084351 359.206146,338.635803 359.254028,351.186005 
	C359.258301,352.308838 359.621918,353.430328 359.805695,354.478485 
	C366.296173,355.541809 367.147675,354.905029 366.901428,348.708923 
	C366.764587,345.264709 365.887054,341.830261 365.945679,338.401703 
	C366.117889,328.326538 366.591400,318.256500 366.731506,307.345917 
M276.016144,390.664490 
	C271.841187,383.712769 265.673920,381.857117 255.748260,384.507355 
	C255.748260,393.285370 255.748260,402.032074 255.748260,410.733215 
	C273.657501,412.325806 280.239441,405.995483 276.016144,390.664490 
M312.265442,386.149811 
	C305.692047,382.199738 300.326508,382.441376 295.405518,386.909210 
	C290.706024,391.175964 289.404297,398.154114 292.260773,403.766998 
	C295.091187,409.328644 300.706726,412.247375 306.705658,411.088257 
	C311.884674,410.087585 315.268921,406.816772 316.999268,401.959595 
	C319.137848,395.956482 317.285980,390.901062 312.265442,386.149811 
M158.507736,400.014954 
	C158.510818,395.697357 158.417908,391.376892 158.546738,387.063049 
	C158.653717,383.481476 157.050491,383.199829 154.138718,384.501251 
	C154.138718,389.866211 154.131470,395.169891 154.141159,400.473541 
	C154.148148,404.304474 152.665771,407.136902 148.517700,407.201477 
	C144.367752,407.266052 142.746338,404.510559 142.722565,400.651093 
	C142.694962,396.167572 142.611252,391.681335 142.730270,387.201019 
	C142.821167,383.780518 141.478760,383.062164 138.328400,384.581818 
	C138.328400,389.715240 138.231155,394.846985 138.352402,399.973541 
	C138.512604,406.746521 142.089233,410.987000 147.739731,411.371338 
	C153.670288,411.774750 157.465439,408.075684 158.507736,400.014954 
M179.036926,407.106079 
	C176.906662,406.531708 174.776398,405.957306 172.646133,405.382935 
	C175.492569,410.858307 180.001465,412.441589 184.932678,410.955505 
	C188.382645,409.915771 191.377792,407.648041 190.791534,403.953461 
	C190.366348,401.273926 188.297256,398.457428 186.186035,396.568329 
	C184.476578,395.038757 181.460846,395.071899 179.319748,393.881073 
	C178.144974,393.227631 176.768494,391.331482 176.959183,390.257843 
	C177.170471,389.068451 178.934753,387.622284 180.263947,387.308014 
	C181.706543,386.966919 183.416626,387.873932 185.029221,388.100098 
	C186.472351,388.302490 187.941574,388.319000 189.399277,388.417511 
	C189.539917,387.780945 189.680573,387.144348 189.821213,386.507782 
	C187.511948,385.484589 185.292160,384.048706 182.874695,383.524658 
	C177.941971,382.455414 173.711548,385.015503 172.649597,389.207458 
	C171.594101,393.373962 173.728088,396.425385 179.026962,398.303131 
	C180.902222,398.967621 182.955322,399.332214 184.607788,400.351562 
	C185.683136,401.014923 186.951019,402.772308 186.748093,403.753052 
	C186.482162,405.038239 185.031113,406.378693 183.751526,407.059479 
	C182.710526,407.613281 181.171646,407.231262 179.036926,407.106079 
M205.253265,383.741455 
	C204.517670,384.382660 203.782074,385.023865 203.046478,385.665070 
	C205.202042,386.640289 207.357605,387.615509 210.353699,388.970978 
	C210.353699,394.546783 210.430954,400.995972 210.319839,407.441864 
	C210.267288,410.489655 211.119553,411.919647 214.945435,410.367371 
	C214.945435,403.012970 214.945435,395.453613 214.945435,388.947266 
	C217.278122,386.180603 222.688858,390.135010 221.740448,383.726074 
	C216.418198,383.726074 211.271362,383.726074 205.253265,383.741455 
M392.783051,384.167877 
	C388.150055,384.044495 383.514130,383.780548 378.885742,383.877441 
	C377.361023,383.909363 375.855835,384.874329 374.341736,385.412628 
	C375.898956,386.106537 377.434692,386.856140 379.022919,387.469788 
	C379.764679,387.756439 380.608002,387.780151 381.898254,388.011383 
	C381.898254,395.644135 381.898254,403.218628 381.898254,410.593536 
	C385.637939,411.787079 385.986053,409.985840 385.947876,407.409912 
	C385.852112,400.952820 385.916229,394.493378 385.916229,387.464630 
	C387.913727,387.464630 389.611084,387.756409 391.118988,387.348236 
	C391.940063,387.125977 392.439575,385.715698 392.783051,384.167877 
M354.829193,411.069305 
	C356.733459,411.069305 358.637695,411.069305 359.955475,411.069305 
	C359.512573,406.057770 358.861725,401.783722 358.832764,397.505432 
	C358.803192,393.138733 359.384460,388.767914 359.710999,384.222168 
	C357.714508,384.222168 355.084839,384.222168 351.487396,384.222168 
	C352.731384,386.148956 354.113403,387.295380 354.069275,388.384064 
	C353.800964,395.003937 353.151672,401.607574 352.788330,408.225342 
	C352.738007,409.141174 353.565552,410.105194 354.829193,411.069305 
M119.928658,402.849335 
	C117.720421,408.330872 116.698250,408.511261 111.960396,404.747925 
	C111.098999,404.063721 109.582169,404.204681 108.018059,403.895538 
	C109.744125,409.557159 112.420189,411.662964 116.630653,411.281311 
	C120.789833,410.904327 123.818665,407.798248 123.943497,403.249207 
	C124.116333,396.951050 123.986900,390.644623 123.986900,384.171204 
	C122.528831,384.171204 121.319977,384.171204 119.977577,384.171204 
	C119.977577,390.314545 119.977577,396.138580 119.928658,402.849335 
M220.783325,334.037354 
	C226.278519,334.051086 231.781631,334.228882 237.263443,333.964752 
	C238.657333,333.897583 239.983582,332.426331 241.340927,331.600220 
	C239.998001,330.465851 238.701492,328.426666 237.304062,328.354980 
	C231.497269,328.057129 225.651108,328.200836 219.840561,328.542725 
	C218.478195,328.622864 217.198608,330.110107 215.880936,330.950043 
	C217.237473,331.977509 218.594009,333.004974 220.783325,334.037354 
M456.305450,308.675415 
	C455.917358,304.936615 453.003387,305.936584 451.089722,306.400604 
	C450.165222,306.624817 448.880066,309.183533 449.247375,310.063934 
	C449.880890,311.582367 451.677368,312.615601 452.985901,313.852417 
	C454.095520,312.379730 455.205109,310.907043 456.305450,308.675415 
z"/>
<path fill="#D7A745" opacity="1.000000" stroke="none" 
	d="
M271.585754,160.414337 
	C286.126740,174.876251 300.417755,189.088104 314.107147,202.701630 
	C294.701019,222.159683 275.593750,241.318085 256.955048,260.006653 
	C237.124374,240.242538 216.409927,219.597656 195.529617,198.787460 
	C198.105515,196.179840 201.225891,193.021057 204.506195,189.700378 
	C221.895126,207.177902 239.029861,224.399948 255.703064,241.158081 
	C268.511261,228.212143 280.835846,215.755051 293.400909,203.054855 
	C290.607483,200.617554 286.742249,197.245102 282.892853,193.886475 
	C276.290619,200.701782 269.043152,208.183121 262.194519,215.252762 
	C233.480530,186.534164 205.868591,158.917801 177.963104,131.007858 
	C180.637924,128.479355 183.833344,125.458717 187.133118,122.339424 
	C211.298523,146.560730 235.508163,170.826370 259.950256,195.324997 
	C264.286591,190.554855 268.156555,186.297714 272.102203,181.957321 
	C248.421570,158.410156 224.121094,134.246628 200.392227,110.651497 
	C220.156799,90.867676 239.276566,71.729263 257.888916,53.098778 
	C277.662140,72.765816 298.391296,93.383629 319.377716,114.257362 
	C316.796204,116.748299 313.605865,119.826721 309.954865,123.349625 
	C292.743073,105.984383 275.544983,88.632980 258.528076,71.464371 
	C245.804565,84.397415 233.582062,96.821213 221.345734,109.259056 
	C224.386963,112.139404 228.212173,115.762283 232.430542,119.757500 
	C239.181778,112.678123 246.395615,105.113663 253.373535,97.796585 
	C281.739563,126.124565 309.293823,153.641846 337.203949,181.514526 
	C334.110535,184.217316 330.801910,187.108139 327.414093,190.068130 
	C303.686035,166.359451 279.348969,142.042282 255.113678,117.826805 
	C250.511734,122.534843 246.476059,126.663551 242.119904,131.120132 
	C251.739304,140.682968 261.537567,150.423630 271.585754,160.414337 
z"/>
<path fill="#FCF8FC" opacity="1.000000" stroke="none" 
	d="
M437.090942,333.041626 
	C435.230865,329.348114 433.495911,326.012024 431.760956,322.675934 
	C431.416473,322.730560 431.071991,322.785217 430.727509,322.839844 
	C430.529968,323.997803 430.191162,325.151642 430.157501,326.314301 
	C429.919037,334.558807 429.881744,342.813080 429.409698,351.042969 
	C429.331573,352.404907 427.439514,353.662811 426.385712,354.968781 
	C425.158051,353.797852 422.889984,352.647858 422.865997,351.452759 
	C422.658936,341.144226 422.880341,330.827728 422.918304,320.513367 
	C422.929260,317.532013 422.533142,314.532745 422.758820,311.574860 
	C422.891724,309.832611 423.879822,308.155609 424.483337,306.449280 
	C426.510986,307.208893 429.428955,307.367828 430.415436,308.829895 
	C435.227020,315.961304 439.561951,323.417267 443.979492,330.809845 
	C445.514648,333.378815 446.802551,336.095520 448.625000,339.542084 
	C452.299988,332.084717 446.333069,323.429840 454.596466,318.111938 
	C456.928009,329.020782 457.374176,339.618408 455.105499,350.226257 
	C454.827881,351.524506 452.985748,353.522858 452.049377,353.427216 
	C450.176880,353.235931 447.668030,352.287842 446.765625,350.823944 
	C443.294495,345.193146 440.354309,339.235077 437.090942,333.041626 
z"/>
<path fill="#FAF3FA" opacity="1.000000" stroke="none" 
	d="
M377.304138,342.629425 
	C375.926239,338.051422 374.060272,333.868378 373.626068,329.541656 
	C372.553192,318.850403 378.528961,311.894104 387.519012,307.618622 
	C396.133118,303.521881 403.777161,307.575958 410.762512,312.353821 
	C414.708618,315.052917 415.520020,320.711090 413.169312,325.941376 
	C412.009430,324.833160 410.826752,324.042145 410.093414,322.949524 
	C403.489349,313.110168 394.161621,309.986938 386.871155,315.264496 
	C378.172577,321.561371 377.372406,332.616913 384.931213,342.067719 
	C389.246979,347.463715 395.128479,350.250122 399.536591,347.343201 
	C403.438385,344.770142 406.295624,340.385834 409.066895,336.418976 
	C410.510254,334.352966 410.772614,331.461823 411.643799,328.704926 
	C415.236816,330.168701 416.438141,332.501678 414.974091,336.134094 
	C413.860626,338.896729 412.979126,341.763062 411.720978,344.455475 
	C404.771515,359.327545 387.054474,356.808075 380.324463,347.041016 
	C379.382141,345.673462 378.420349,344.319366 377.304138,342.629425 
z"/>
<path fill="#FBF6FB" opacity="1.000000" stroke="none" 
	d="
M190.022293,337.162048 
	C190.005310,348.503998 189.994400,348.414307 200.936783,347.082947 
	C204.022186,346.707581 207.191940,347.025665 210.241516,347.025665 
	C211.904556,353.209167 211.575348,353.586212 205.849564,353.865540 
	C200.221512,354.140076 194.603699,354.629242 188.982712,355.041992 
	C185.706436,355.282532 184.061142,353.974060 183.976654,350.501556 
	C183.703003,339.254791 183.075989,328.013428 182.977600,316.766571 
	C182.897369,307.596130 184.695297,306.030670 193.706589,306.112396 
	C197.990112,306.151245 202.304108,306.089569 206.535721,306.620270 
	C207.815765,306.780823 209.629150,308.685425 209.778000,309.957397 
	C209.895401,310.960846 207.868591,313.153778 206.734863,313.195129 
	C202.787949,313.339111 198.811676,312.818237 194.853485,312.471191 
	C191.367813,312.165527 189.546249,313.276764 189.827408,317.184174 
	C190.002563,319.618500 189.470383,322.103699 189.195114,325.260193 
	C193.173889,325.260193 197.108170,325.223450 201.041367,325.273193 
	C203.626617,325.305908 206.610779,324.652466 206.654495,328.899994 
	C206.696106,332.942505 203.852036,332.207550 201.468475,332.328796 
	C198.976120,332.455566 196.474579,332.706329 193.989853,332.601013 
	C190.975082,332.473267 189.644623,333.667816 190.022293,337.162048 
z"/>
<path fill="#F9F2F9" opacity="1.000000" stroke="none" 
	d="
M308.106934,332.888275 
	C308.524567,325.132019 308.773956,317.825012 309.504883,310.566467 
	C309.647064,309.154724 311.663483,307.931763 312.815369,306.621704 
	C313.836639,307.870911 315.593109,309.045807 315.728485,310.384613 
	C316.024475,313.312012 315.558929,316.328156 315.294464,319.298218 
	C314.588013,327.231293 314.092957,335.196320 313.006256,343.078674 
	C311.921509,350.947083 306.055695,355.139740 297.313995,355.008118 
	C288.890930,354.881287 282.559753,350.095123 281.782227,342.549469 
	C280.948730,334.460480 280.658539,326.310822 280.294739,318.180328 
	C280.128784,314.470886 281.533234,311.465057 286.259003,309.241211 
	C286.765656,318.946899 287.138672,327.958557 287.745605,336.954376 
	C288.061951,341.643280 288.546204,346.471527 294.297241,348.015625 
	C299.971252,349.539093 306.390228,347.910217 307.965302,337.840027 
	C308.194702,336.373322 308.068512,334.851013 308.106934,332.888275 
z"/>
<path fill="#FAF4FA" opacity="1.000000" stroke="none" 
	d="
M351.849457,347.712036 
	C346.614288,353.728882 340.577332,356.335297 333.061646,353.558563 
	C329.643585,352.295776 326.174194,350.957336 323.126678,349.024719 
	C322.087006,348.365356 322.265350,345.785217 321.887146,344.082703 
	C323.400635,343.788940 325.108398,342.899811 326.389679,343.317810 
	C329.674469,344.389465 332.725403,346.153717 335.952026,347.433899 
	C340.001556,349.040558 344.676514,348.100983 345.841644,344.533173 
	C346.699799,341.905396 344.315094,337.402679 342.098969,334.838623 
	C340.244720,332.693237 336.292175,332.518707 333.718994,330.798157 
	C330.378082,328.564240 326.870941,326.110413 324.552338,322.935547 
	C321.704132,319.035492 322.784027,314.638489 326.109711,311.105713 
	C330.419281,306.527771 338.330750,305.444183 344.045898,308.495911 
	C344.453369,308.713501 344.942780,308.773956 345.388428,308.924286 
	C346.828583,309.410187 348.266083,309.903931 349.704590,310.394684 
	C349.145660,311.973450 348.586700,313.552185 348.027710,315.130920 
	C347.772034,314.582397 347.516327,314.033875 347.260620,313.485321 
	C342.523712,313.784821 337.657867,313.523865 333.093750,314.574249 
	C329.869751,315.316193 328.433533,318.026428 331.014709,321.556396 
	C332.038666,322.956696 332.037109,325.106903 332.597931,327.286865 
	C337.933350,322.768127 342.856659,326.346680 346.653259,329.640930 
	C351.771881,334.082245 355.254395,339.966583 351.849457,347.712036 
z"/>
<path fill="#FAF3FA" opacity="1.000000" stroke="none" 
	d="
M55.521996,353.571228 
	C52.103001,352.102539 48.804276,351.148621 46.122448,349.299835 
	C44.906860,348.461853 44.915405,345.848145 44.368637,344.039978 
	C46.040604,343.860260 47.873993,343.155365 49.351173,343.609375 
	C52.497692,344.576477 55.422253,346.240112 58.505817,347.444031 
	C62.577343,349.033722 67.258003,348.047791 68.385826,344.501434 
	C69.226227,341.858917 66.803398,337.304138 64.518234,334.802948 
	C62.481041,332.573181 58.679424,331.886627 55.584526,330.707977 
	C50.752487,328.867798 47.286972,325.647827 46.060444,320.636810 
	C44.986195,316.247894 46.096722,311.880005 50.261913,309.814819 
	C55.089661,307.421204 60.164204,303.870148 65.984283,307.836792 
	C66.712624,308.333160 67.697479,308.436707 68.525650,308.806915 
	C69.773483,309.364685 71.469063,309.711792 72.052155,310.695221 
	C72.459526,311.382263 71.646370,313.530334 70.794075,314.030792 
	C69.838448,314.592010 68.218315,313.913330 66.898201,313.982422 
	C62.907642,314.191254 58.780670,313.958740 54.982052,314.951324 
	C52.188267,315.681396 51.021366,318.150482 53.286797,321.260162 
	C54.362347,322.736542 54.455994,324.928253 55.080608,327.094666 
	C60.241322,323.021240 65.214172,326.217499 69.074295,329.589233 
	C73.512665,333.466095 77.263763,338.439789 75.123207,345.355072 
	C73.485672,350.645355 65.260406,355.759125 59.781765,354.602844 
	C58.481686,354.328491 57.189678,354.015900 55.521996,353.571228 
z"/>
<path fill="#F8F0F8" opacity="1.000000" stroke="none" 
	d="
M116.080536,311.627625 
	C110.913559,312.658691 105.746574,313.689758 99.891815,314.858063 
	C99.891815,316.115784 99.901688,317.900085 99.890182,319.684235 
	C99.825851,329.665985 99.756508,339.647766 99.688538,349.629517 
	C99.669601,352.410492 98.827408,354.837799 95.642975,354.854736 
	C92.280403,354.872650 92.491501,352.156891 92.500519,349.759094 
	C92.540009,339.260406 92.439651,328.759674 92.626068,318.263885 
	C92.692528,314.521576 91.329018,313.101471 87.643387,313.548615 
	C85.669350,313.788147 83.544449,314.040375 81.684593,313.545898 
	C80.329147,313.185577 79.295769,311.613770 78.118813,310.582001 
	C79.318146,309.303741 80.473495,306.967346 81.723816,306.915375 
	C91.372147,306.514252 101.044495,306.366333 110.694145,306.653076 
	C112.232430,306.698792 113.694458,309.310852 115.635345,310.923340 
	C116.094238,311.282623 116.094772,311.455078 116.080536,311.627625 
z"/>
<path fill="#FCF7FC" opacity="1.000000" stroke="none" 
	d="
M254.955811,350.540100 
	C253.866089,352.323730 252.784210,353.654633 251.702332,354.985535 
	C250.453384,353.468475 248.307877,352.050934 248.126328,350.415405 
	C247.615173,345.810638 247.772415,341.111816 247.920959,336.458191 
	C248.175018,328.499023 248.511932,320.538666 249.037582,312.593597 
	C249.292358,308.742706 251.086533,305.924438 255.549973,306.165070 
	C261.348907,306.477661 267.165039,306.698059 272.920959,307.394592 
	C274.110809,307.538574 275.931488,309.624786 275.897339,310.769165 
	C275.861298,311.977875 274.008331,314.069153 272.856476,314.134186 
	C269.244507,314.337982 265.584747,313.816345 261.951324,313.488739 
	C256.588776,313.005249 255.693268,314.197357 255.181351,321.568329 
	C254.869141,326.063690 257.475677,326.348389 260.834198,326.190796 
	C263.154510,326.081909 265.581421,325.914764 267.783081,326.473541 
	C269.120026,326.812897 270.926605,328.371796 271.095825,329.582275 
	C271.416595,331.876801 270.246521,333.672943 267.268036,333.462555 
	C264.310974,333.253662 261.252563,332.992004 258.393066,333.548004 
	C257.063995,333.806427 255.267761,335.861359 255.126984,337.248444 
	C254.696533,341.489929 254.966278,345.802490 254.955811,350.540100 
z"/>
<path fill="#FBF6FB" opacity="1.000000" stroke="none" 
	d="
M116.121887,311.990173 
	C116.094772,311.455078 116.094238,311.282623 116.061005,310.983612 
	C117.388100,309.759552 118.733124,308.662140 120.524803,307.200287 
	C123.446869,311.217621 126.090782,314.980682 128.897049,318.618469 
	C129.578308,319.501587 130.844513,320.541382 131.749283,320.461517 
	C132.545456,320.391266 133.275238,318.899872 133.925049,317.960510 
	C136.253235,314.594757 138.308594,310.997681 140.991119,307.949219 
	C141.674713,307.172333 144.609085,307.607025 145.893112,308.437622 
	C146.581085,308.882660 146.612366,312.135590 145.827118,312.793884 
	C135.559357,321.401398 133.372040,332.582245 134.886337,345.122803 
	C135.143265,347.250549 135.368988,349.580261 134.751923,351.547852 
	C134.317368,352.933563 132.597305,354.470032 131.157028,354.864166 
	C128.626816,355.556580 127.740700,353.829468 127.812851,351.365021 
	C127.914871,347.880402 127.451889,344.350983 127.836205,340.908325 
	C128.874054,331.611267 125.165268,324.168732 119.429321,317.339478 
	C118.160362,315.828644 117.242676,314.022766 116.121887,311.990173 
z"/>
<path fill="#FBF6FB" opacity="1.000000" stroke="none" 
	d="
M176.584244,347.910431 
	C178.757080,351.246216 177.778336,353.983002 174.259491,354.342285 
	C167.997147,354.981750 161.640518,355.030426 155.348251,354.755554 
	C154.131485,354.702393 151.760010,351.615540 152.082230,350.647156 
	C153.979904,344.943573 150.416992,338.941406 154.179688,332.959778 
	C155.924301,330.186340 153.028915,324.593964 152.484879,320.248505 
	C152.073212,316.960571 151.631256,313.567383 152.059814,310.334656 
	C152.242844,308.954010 154.606903,307.862488 155.979904,306.639587 
	C156.768066,308.098724 158.147827,309.520721 158.242249,311.023438 
	C158.656555,317.617340 158.754700,324.233765 158.859009,330.843719 
	C158.944382,336.253723 158.876389,341.666107 158.876389,347.868073 
	C164.927048,347.868073 170.530212,347.868073 176.584244,347.910431 
z"/>
<path fill="#F8EFF8" opacity="1.000000" stroke="none" 
	d="
M366.839203,307.765198 
	C366.591400,318.256500 366.117889,328.326538 365.945679,338.401703 
	C365.887054,341.830261 366.764587,345.264709 366.901428,348.708923 
	C367.147675,354.905029 366.296173,355.541809 359.805695,354.478485 
	C359.621918,353.430328 359.258301,352.308838 359.254028,351.186005 
	C359.206146,338.635803 359.123322,326.084351 359.267365,313.535736 
	C359.305176,310.240631 359.710175,306.627808 364.192780,306.182800 
	C364.992645,306.103424 365.882935,306.934998 366.839203,307.765198 
z"/>
<path fill="#F4E6F4" opacity="1.000000" stroke="none" 
	d="
M276.144409,391.023010 
	C280.239441,405.995483 273.657501,412.325806 255.748260,410.733215 
	C255.748260,402.032074 255.748260,393.285370 255.748260,384.507355 
	C265.673920,381.857117 271.841187,383.712769 276.144409,391.023010 
M259.804047,389.609894 
	C259.804047,395.353271 259.804047,401.096649 259.804047,406.757904 
	C267.733185,407.459198 270.342102,406.658417 272.003082,402.695465 
	C273.837952,398.317657 273.961090,393.715546 270.649902,390.063660 
	C267.749207,386.864471 263.842957,386.565796 259.804047,389.609894 
z"/>
<path fill="#F8EEF8" opacity="1.000000" stroke="none" 
	d="
M312.544250,386.387329 
	C317.285980,390.901062 319.137848,395.956482 316.999268,401.959595 
	C315.268921,406.816772 311.884674,410.087585 306.705658,411.088257 
	C300.706726,412.247375 295.091187,409.328644 292.260773,403.766998 
	C289.404297,398.154114 290.706024,391.175964 295.405518,386.909210 
	C300.326508,382.441376 305.692047,382.199738 312.544250,386.387329 
M309.773987,405.510132 
	C310.676544,404.334320 311.867096,403.280975 312.428864,401.960205 
	C314.271759,397.627014 313.889343,393.445007 310.458954,390.012512 
	C307.417816,386.969421 303.691254,386.448334 299.974274,388.592255 
	C295.958832,390.908386 294.425079,394.702362 295.145538,399.208588 
	C296.237732,406.040009 302.148834,408.828918 309.773987,405.510132 
z"/>
<path fill="#F3E4F3" opacity="1.000000" stroke="none" 
	d="
M158.498993,400.453979 
	C157.465439,408.075684 153.670288,411.774750 147.739731,411.371338 
	C142.089233,410.987000 138.512604,406.746521 138.352402,399.973541 
	C138.231155,394.846985 138.328400,389.715240 138.328400,384.581818 
	C141.478760,383.062164 142.821167,383.780518 142.730270,387.201019 
	C142.611252,391.681335 142.694962,396.167572 142.722565,400.651093 
	C142.746338,404.510559 144.367752,407.266052 148.517700,407.201477 
	C152.665771,407.136902 154.148148,404.304474 154.141159,400.473541 
	C154.131470,395.169891 154.138718,389.866211 154.138718,384.501251 
	C157.050491,383.199829 158.653717,383.481476 158.546738,387.063049 
	C158.417908,391.376892 158.510818,395.697357 158.498993,400.453979 
z"/>
<path fill="#F8EFF8" opacity="1.000000" stroke="none" 
	d="
M179.445236,407.185181 
	C181.171646,407.231262 182.710526,407.613281 183.751526,407.059479 
	C185.031113,406.378693 186.482162,405.038239 186.748093,403.753052 
	C186.951019,402.772308 185.683136,401.014923 184.607788,400.351562 
	C182.955322,399.332214 180.902222,398.967621 179.026962,398.303131 
	C173.728088,396.425385 171.594101,393.373962 172.649597,389.207458 
	C173.711548,385.015503 177.941971,382.455414 182.874695,383.524658 
	C185.292160,384.048706 187.511948,385.484589 189.821213,386.507782 
	C189.680573,387.144348 189.539917,387.780945 189.399277,388.417511 
	C187.941574,388.319000 186.472351,388.302490 185.029221,388.100098 
	C183.416626,387.873932 181.706543,386.966919 180.263947,387.308014 
	C178.934753,387.622284 177.170471,389.068451 176.959183,390.257843 
	C176.768494,391.331482 178.144974,393.227631 179.319748,393.881073 
	C181.460846,395.071899 184.476578,395.038757 186.186035,396.568329 
	C188.297256,398.457428 190.366348,401.273926 190.791534,403.953461 
	C191.377792,407.648041 188.382645,409.915771 184.932678,410.955505 
	C180.001465,412.441589 175.492569,410.858307 172.646133,405.382935 
	C174.776398,405.957306 176.906662,406.531708 179.445236,407.185181 
z"/>
<path fill="#EFDAEF" opacity="1.000000" stroke="none" 
	d="
M205.688904,383.733765 
	C211.271362,383.726074 216.418198,383.726074 221.740448,383.726074 
	C222.688858,390.135010 217.278122,386.180603 214.945435,388.947266 
	C214.945435,395.453613 214.945435,403.012970 214.945435,410.367371 
	C211.119553,411.919647 210.267288,410.489655 210.319839,407.441864 
	C210.430954,400.995972 210.353699,394.546783 210.353699,388.970978 
	C207.357605,387.615509 205.202042,386.640289 203.046478,385.665070 
	C203.782074,385.023865 204.517670,384.382660 205.688904,383.733765 
z"/>
<path fill="#FBF6FB" opacity="1.000000" stroke="none" 
	d="
M392.933594,384.504547 
	C392.439575,385.715698 391.940063,387.125977 391.118988,387.348236 
	C389.611084,387.756409 387.913727,387.464630 385.916229,387.464630 
	C385.916229,394.493378 385.852112,400.952820 385.947876,407.409912 
	C385.986053,409.985840 385.637939,411.787079 381.898254,410.593536 
	C381.898254,403.218628 381.898254,395.644135 381.898254,388.011383 
	C380.608002,387.780151 379.764679,387.756439 379.022919,387.469788 
	C377.434692,386.856140 375.898956,386.106537 374.341736,385.412628 
	C375.855835,384.874329 377.361023,383.909363 378.885742,383.877441 
	C383.514130,383.780548 388.150055,384.044495 392.933594,384.504547 
z"/>
<path fill="#EFDAEF" opacity="1.000000" stroke="none" 
	d="
M354.407959,411.058105 
	C353.565552,410.105194 352.738007,409.141174 352.788330,408.225342 
	C353.151672,401.607574 353.800964,395.003937 354.069275,388.384064 
	C354.113403,387.295380 352.731384,386.148956 351.487396,384.222168 
	C355.084839,384.222168 357.714508,384.222168 359.710999,384.222168 
	C359.384460,388.767914 358.803192,393.138733 358.832764,397.505432 
	C358.861725,401.783722 359.512573,406.057770 359.955475,411.069305 
	C358.637695,411.069305 356.733459,411.069305 354.407959,411.058105 
z"/>
<path fill="#FBF6FB" opacity="1.000000" stroke="none" 
	d="
M119.953117,402.405945 
	C119.977577,396.138580 119.977577,390.314545 119.977577,384.171204 
	C121.319977,384.171204 122.528831,384.171204 123.986900,384.171204 
	C123.986900,390.644623 124.116333,396.951050 123.943497,403.249207 
	C123.818665,407.798248 120.789833,410.904327 116.630653,411.281311 
	C112.420189,411.662964 109.744125,409.557159 108.018059,403.895538 
	C109.582169,404.204681 111.098999,404.063721 111.960396,404.747925 
	C116.698250,408.511261 117.720421,408.330872 119.953117,402.405945 
z"/>
<path fill="#F7EEF7" opacity="1.000000" stroke="none" 
	d="
M220.366943,334.034882 
	C218.594009,333.004974 217.237473,331.977509 215.880936,330.950012 
	C217.198608,330.110107 218.478195,328.622864 219.840561,328.542725 
	C225.651108,328.200836 231.497269,328.057129 237.304062,328.354980 
	C238.701492,328.426666 239.998001,330.465851 241.340927,331.600220 
	C239.983582,332.426331 238.657333,333.897583 237.263443,333.964752 
	C231.781631,334.228882 226.278519,334.051086 220.366943,334.034882 
z"/>
<path fill="#F5E9F5" opacity="1.000000" stroke="none" 
	d="
M456.310059,309.054871 
	C455.205109,310.907043 454.095520,312.379730 452.985901,313.852417 
	C451.677368,312.615601 449.880890,311.582367 449.247375,310.063934 
	C448.880066,309.183533 450.165222,306.624817 451.089722,306.400604 
	C453.003387,305.936584 455.917358,304.936615 456.310059,309.054871 
z"/>
<path fill="#920A92" opacity="1.000000" stroke="none" 
	d="
M259.865173,389.126801 
	C263.842957,386.565796 267.749207,386.864471 270.649902,390.063660 
	C273.961090,393.715546 273.837952,398.317657 272.003082,402.695465 
	C270.342102,406.658417 267.733185,407.459198 259.804047,406.757904 
	C259.804047,401.096649 259.804047,395.353271 259.865173,389.126801 
z"/>
<path fill="#930B93" opacity="1.000000" stroke="none" 
	d="
M309.434570,405.731201 
	C302.148834,408.828918 296.237732,406.040009 295.145538,399.208588 
	C294.425079,394.702362 295.958832,390.908386 299.974274,388.592255 
	C303.691254,386.448334 307.417816,386.969421 310.458954,390.012512 
	C313.889343,393.445007 314.271759,397.627014 312.428864,401.960205 
	C311.867096,403.280975 310.676544,404.334320 309.434570,405.731201 
z"/>
</svg>